{"title":"Arn, Tempelriddaren 2007 Miniserie DVD9rip Original Klam","uid":8550815,"size":4969426935,"categoryP":"video","categoryS":"movies","magnet":"?xt=urn:btih:f08185783d850d44647b9b12ee41ecd142743799&amp;dn=Arn%2C+Tempelriddaren+2007+Miniserie+DVD9rip+Original+Klam&amp;tr=udp%3A%2F%2Ftracker.openbittorrent.com%3A80&amp;tr=udp%3A%2F%2Fopen.demonii.com%3A1337&amp;tr=udp%3A%2F%2Ftracker.coppersurfer.tk%3A6969&amp;tr=udp%3A%2F%2Fexodus.desync.com%3A6969","seeders":1,"leechers":1,"uploader":"Klambake","files":-1,"time":1370639553,"description":"With: Joakim Natterqvist, Sofia Helin en Stellan Skarsgard\n\nSpeciale Editie, Lange Versie,\nArn (Joakim Natterqvist) is de zoon van een hooggeplaatste Zweedse edelman, die zijn jeugd onder de hoede van de kerk heeft doorgebracht. Als Arn zich ondanks de afkeuring van zijn omgeving inlaat met een verboden liefde, wordt hij naar het heilige land gestuurd. Daar zal Arn als tempelier boete moeten doen voor zijn zonden.\n\nSpecial Edition, Long Version,\nArn, the son of a high-ranking Swedish nobleman is educated in a monastery and sent to the Holy Land as a knight templar to do penance for a forbidden love. \n &lt;a href=&quot;\nhttp://www.imdb.com/title/tt0837106&quot; rel=&quot;nofollow&quot; target=&quot;_NEW&quot;&gt;\nhttp://www.imdb.com/title/tt0837106&lt;/a&gt;\t\n\n------------------------ Dutch Friends ------------------------\n---------------------------------------------------------------\n- Bezoek ook eens mijn vrienden op: &lt;a href=&quot; http://www.Film-Test.nl&quot; rel=&quot;nofollow&quot; target=&quot;_NEW&quot;&gt; http://www.Film-Test.nl&lt;/a&gt; --\n----- voor mijn Nederlandse Sync. ondertitels ---- en meer ----\n------- http://www.Film-Test.nl ---- Over Films en meer -------\n---------------------------------------------------------------\n\nGeneral:\n\nComplete name                    : Arn, TempelriddarenPart01.avi\nFormat                           : AVI\nFormat/Info                      : Audio Video Interleave\nFile size                        : 798 MiB\nDuration                         : 47mn 24s\nOverall bit rate                 : 2 353 Kbps\n\nVideo:\n\nFormat                           : MPEG-4 Visual\nFormat profile                   : Simple@L3\nFormat settings, BVOP            : No\nFormat settings, QPel            : No\nFormat settings, GMC             : No warppoints\nFormat settings, Matrix          : Default (H.263)\nCodec ID                         : XVID\nCodec ID/Hint                    : XviD\nDuration                         : 47mn 24s\nBit rate                         : 1 894 Kbps\nWidth                            : 704 pixels\nHeight                           : 396 pixels\nDisplay aspect ratio             : 16:9\nFrame rate                       : 25.000 fps\nColor space                      : YUV\nChroma subsampling               : 4:2:0\nBit depth                        : 8 bits\nScan type                        : Progressive\nCompression mode                 : Lossy\nBits/(Pixel*Frame)               : 0.272\nStream size                      : 642 MiB (81%)\nWriting library                  : XviD 1.1.2 (UTC 2006-11-01)\n\nAudio:\n\nFormat                           : AC-3\nFormat/Info                      : Audio Coding 3\nMode extension                   : CM (complete main)\nCodec ID                         : 2000\nDuration                         : 47mn 23s\nBit rate mode                    : Constant\nBit rate                         : 448 Kbps\nChannel(s)                       : 6 channels\nChannel positions                : Front: L C R, Side: L R, LFE\nSampling rate                    : 48.0 KHz\nBit depth                        : 16 bits\nCompression mode                 : Lossy\nStream size                      : 152 MiB (19%)\nAlignment                        : Aligned on interleaves\nInterleave, duration             : 32 ms (0.80 video frame)\nInterleave, preload duration     : 288 ms","torrent":{"xt":"urn:btih:f08185783d850d44647b9b12ee41ecd142743799","amp;dn":"Arn%2C+Tempelriddaren+2007+Miniserie+DVD9rip+Original+Klam","amp;tr":["udp%3A%2F%2Ftracker.openbittorrent.com%3A80","udp%3A%2F%2Fopen.demonii.com%3A1337","udp%3A%2F%2Ftracker.coppersurfer.tk%3A6969","udp%3A%2F%2Fexodus.desync.com%3A6969"],"infoHash":"f08185783d850d44647b9b12ee41ecd142743799","infoHashBuffer":{"type":"Buffer","data":[240,129,133,120,61,133,13,68,100,123,155,18,238,65,236,209,66,116,55,153]},"announce":[],"urlList":[]}}